<svg xmlns="http://www.w3.org/2000/svg" xmlns:xlink="http://www.w3.org/1999/xlink" width="220" height="184" viewBox="0 0 220 184"><defs><path id="a" d="M0 150.662h156.46V.427H0z"/><path id="c" d="M0 .428v113.5h219.522V.429z"/></defs><g fill="none" fill-rule="evenodd"><path fill="#D9D9D9" d="M1.075 80.673v69.24l63.062 32.698v-68.813z"/><path fill="#FFF" d="M2.15 149.36l60.912 31.582v-66.594L2.15 82.353v67.007zm61.987 34.212a1.17 1.17 0 0 1-.54-.13L.537 150.747c-.332-.172-.536-.49-.536-.832v-69.24c0-.346.206-.664.541-.836.334-.17.746-.167 1.079.006l63.061 33.124c.329.173.53.489.53.83v68.813c0 .343-.204.661-.537.833a1.167 1.167 0 0 1-.537.128z"/><path fill="#D9D9D9" d="M218.447 34.3v69.24l-154.31 79.07v-68.812z"/><g transform="translate(63.062 32.91)"><mask id="b" fill="#fff"><use xlink:href="#a"/></mask><path fill="#FFF" d="M2.15 81.444v66.597l152.16-77.968V3.053L2.15 81.443zm-1.075 69.218c-.186 0-.373-.043-.539-.13-.332-.172-.536-.489-.536-.832V80.888c0-.344.205-.662.539-.834L154.849.556a1.184 1.184 0 0 1 1.074 0c.333.173.537.49.537.833v69.24c0 .346-.206.664-.54.836L1.608 150.535a1.18 1.18 0 0 1-.534.127z" mask="url(#b)"/></g><path fill="#D9D9D9" d="M64.137 113.18L1.075 80.674l154.31-79.07 63.062 32.08z"/><g transform="translate(0 .213)"><mask id="d" fill="#fff"><use xlink:href="#c"/></mask><path fill="#FFF" d="M3.233 80.462l60.904 31.395 152.146-78.383-60.896-30.977L3.233 80.462zm60.904 33.467a1.17 1.17 0 0 1-.537-.129L.538 81.293c-.333-.172-.539-.49-.538-.834 0-.345.206-.663.54-.834L154.852.555a1.19 1.19 0 0 1 1.066-.002l63.062 32.08c.334.17.542.488.543.833.001.345-.204.664-.538.836L64.674 113.8a1.17 1.17 0 0 1-.537.129z" mask="url(#d)"/></g><path fill="#868686" d="M3.387 144.726l27.59 15.033v-59.442L3.387 85.783v58.943zm28.306 16.816a.786.786 0 0 1-.373-.094L2.297 145.634a.632.632 0 0 1-.343-.548V84.661c0-.23.138-.443.361-.557a.793.793 0 0 1 .72.005l29.022 15.29a.63.63 0 0 1 .353.552v60.95c0 .231-.14.445-.366.559a.787.787 0 0 1-.35.082z"/><path fill="#868686" d="M32.41 160.534l28.413 14.937v-59.574l-28.413-14.83v59.467zm29.13 16.698a.78.78 0 0 1-.363-.088l-29.847-15.69a.631.631 0 0 1-.353-.554V99.951a.63.63 0 0 1 .36-.555.788.788 0 0 1 .718.002L61.9 114.975a.63.63 0 0 1 .355.554v61.062c0 .23-.137.442-.36.556a.785.785 0 0 1-.356.085z"/><path fill="#B1B1B1" d="M8.815 93.942v3.42l19.013 9.918v-3.74zm0 23.863v3.419l19.013 9.918v-3.74zm0 24.255v3.42l19.013 9.918v-3.74zm29.381-33.051v3.419l19.013 9.919v-3.74zm0 23.862v3.42l19.013 9.917v-3.739zm0 24.256v3.42l19.013 9.917v-3.74z"/><path fill="#575756" d="M24.222 96.701l1.456.66v64.413l1.672 1.07v-64.06l2.508 1.23v-2.652l-5.636-3.012zm10.511 5.236l1.456.66v64.413l1.672 1.069V104.02l2.508 1.228v-2.652l-5.636-3.01z"/><path fill="#B1B1B1" d="M75.364 111.447v60.478l-4.18 1.924v-60.051zM8.815 79.337l56.734 29.672 3.962-2.263L13.19 77.29zm7.764-3.739l56.733 29.671 3.963-2.264L20.954 73.55zm7.643-4.168l56.734 29.672 3.962-2.264-56.321-29.455zm7.883-3.74l56.734 29.672 3.962-2.263L36.48 65.643zm7.058-4.702L95.897 92.66l3.963-2.263-56.322-29.456zm7.764-3.549L103.66 89.11l3.963-2.263L51.3 57.391zm7.643-3.869l56.734 29.672 3.962-2.263-56.32-29.456zm7.883-3.74l56.734 29.672 3.962-2.263-56.321-29.456zm7.764-4.212l56.733 29.671 3.962-2.262L74.591 45.57zm7.058-4.038l56.735 29.67 3.962-2.264L81.65 41.531zm7.644-3.868l56.733 29.671 3.962-2.264-56.321-29.455zm8.479-3.741l56.734 29.672 3.963-2.264-56.323-29.455zm7.763-4.213l56.734 29.672 3.963-2.263-56.322-29.456zm7.764-4.038l56.734 29.67 3.962-2.262-56.322-29.456zm7.285-3.869l56.734 29.672 3.963-2.263-56.321-29.456zm7.536-4.274l56.735 29.672 3.962-2.264L128.12 17.53zm7.764-3.678l56.734 29.671 3.962-2.263-56.32-29.455zm7.285-4.039l56.735 29.67 3.962-2.262L143.17 9.812zm9.126-3.869l56.734 29.672 3.962-2.263-56.321-29.456zM82.888 107.28v60.478l-4.18 1.923v-60.05zm7.704-4.168v60.479l-4.18 1.923v-60.05zm7.704-4.327v60.478l-4.181 1.924v-60.051zm7.882-3.686v60.478l-4.18 1.923V97.45zm7.764-4.168v60.479l-4.18 1.923v-60.05zm7.166-3.686v60.478l-4.18 1.923v-60.05zm7.882-4.167v60.478l-4.18 1.923V85.43zm8.063-4.488v60.478l-4.18 1.923v-60.05zm7.524-3.526v60.478l-4.18 1.923v-60.05zm7.525-4.007v60.478l-4.181 1.923v-60.05zm7.882-3.473v60.479l-4.18 1.923V69.934zm7.883-4.328v60.48l-4.18 1.923V65.607zm7.703-4.327v60.479l-4.18 1.923V61.279zm7.346-3.526v60.479l-4.18 1.923V57.753zm7.704-4.625v60.48l-4.181 1.923V53.129zm8.061-3.389v60.479l-4.18 1.923V49.739zm7.167-3.526v60.478l-4.181 1.924V46.213zm7.703-4.007v60.478l-4.18 1.924V42.206z"/></g></svg>