<svg xmlns="http://www.w3.org/2000/svg" width="146" height="138" viewBox="0 0 146 138"><g fill="none" fill-rule="evenodd"><path fill="#9C9B9B" d="M1.084 42.523v63.063l60.894 31.451V73.333z"/><path fill="#FFF" d="M2.168 105.032l58.726 30.332V73.892L2.168 44.18v60.852zM61.978 138c-.189 0-.377-.043-.545-.13L.539 106.418c-.334-.172-.539-.49-.539-.832V42.523c0-.343.205-.66.54-.832a1.203 1.203 0 0 1 1.08-.004l60.894 30.809c.339.171.548.49.548.836v63.705c0 .345-.208.663-.544.834a1.184 1.184 0 0 1-.54.129z"/><path fill="#9C9B9B" d="M144.916 31.772v63.063l-82.938 42.202V73.333z"/><path fill="#FFF" d="M63.062 73.895v61.481l80.77-41.099V33.421l-80.77 40.474zM61.978 138c-.188 0-.376-.043-.544-.13-.334-.172-.54-.49-.54-.833V73.333c0-.348.21-.668.551-.84l82.938-41.56a1.202 1.202 0 0 1 1.08.008c.332.173.537.489.537.831v63.063c0 .345-.208.664-.545.836l-82.938 42.202a1.193 1.193 0 0 1-.54.127z"/><path fill="#9C9B9B" d="M84.022.963l60.894 30.167-82.938 42.203-60.894-30.81z"/><path fill="#FFF" d="M3.282 42.527l58.694 29.697 80.737-41.083L84.025 2.066 3.282 42.527zm58.696 31.769c-.185 0-.371-.043-.537-.127L.548 43.36c-.34-.17-.549-.49-.548-.837 0-.347.212-.667.551-.837L83.49.125a1.2 1.2 0 0 1 1.06-.003l60.893 30.168c.342.168.555.487.557.835.002.347-.206.668-.545.84L62.517 74.168a1.193 1.193 0 0 1-.54.128z"/></g></svg>