<svg xmlns="http://www.w3.org/2000/svg" xmlns:xlink="http://www.w3.org/1999/xlink" width="98" height="93" viewBox="0 0 98 93"><defs><path id="a" d="M57.237 71.693V.463H.11v71.23z"/></defs><g fill="none" fill-rule="evenodd"><path fill="#9C9B9B" d="M1.06 28.943v41.553L41.448 91.22V49.244z"/><path fill="#FFF" d="M2.12 69.958l38.267 19.637V49.788L2.121 30.552v39.406zm39.327 22.197c-.183 0-.368-.042-.532-.127L.528 71.304C.2 71.137 0 70.83 0 70.496V28.943c0-.333.2-.64.527-.808a1.18 1.18 0 0 1 1.057-.004l40.387 20.3c.331.166.535.477.535.813V91.22c0 .335-.202.644-.531.81a1.163 1.163 0 0 1-.529.125z"/><path fill="#9C9B9B" d="M96.454 21.86v41.552L41.447 91.219V49.244z"/><g transform="translate(40.277 20.46)"><mask id="b" fill="#fff"><use xlink:href="#a"/></mask><path fill="#FFF" d="M2.23 29.33v39.815l52.887-26.736V3L2.23 29.33zM1.17 71.692c-.183 0-.367-.041-.531-.125-.327-.168-.529-.476-.529-.81V28.783c0-.337.207-.649.54-.814L55.656.584c.329-.164.73-.16 1.056.007.325.168.525.475.525.807v41.553c0 .335-.203.645-.533.811L1.698 71.569a1.165 1.165 0 0 1-.528.124z" mask="url(#b)"/></g><path fill="#9C9B9B" d="M56.068 1.559l40.386 19.878-55.006 27.807-40.388-20.3z"/><path fill="#FFF" d="M3.209 28.947l38.237 19.22L94.3 21.447 56.07 2.632 3.21 28.947zM41.447 50.18c-.18 0-.361-.04-.524-.123L.536 29.756c-.332-.166-.537-.477-.536-.814 0-.337.206-.647.54-.813L55.546.744c.322-.16.716-.16 1.037-.002L96.97 20.62c.334.164.542.474.544.811.002.338-.201.65-.533.817L41.975 50.055a1.165 1.165 0 0 1-.528.124z"/></g></svg>