<svg xmlns="http://www.w3.org/2000/svg" xmlns:xlink="http://www.w3.org/1999/xlink" width="49" height="76" viewBox="0 0 49 76"><defs><path id="a" d="M48.407 75.32V.505H0V75.32z"/></defs><g fill="none" fill-rule="evenodd"><path fill="#1D1D1B" d="M45.506 30.572c0-1.63-.62-3.183-1.738-4.595v-6.47c1.118-1.411 1.738-2.964 1.738-4.595 0-2.325-1.264-4.492-3.436-6.318-3.56-3.257-10.302-5.456-18.036-5.456-.084 0-.167.003-.252.004-.082 0-.163-.004-.246-.004C11.405 3.138 1.57 8.41 1.57 14.912c0 1.63.619 3.184 1.738 4.596v6.469c-1.12 1.412-1.738 2.964-1.738 4.595 0 1.631.619 3.185 1.738 4.596v6.386c-1.12 1.412-1.738 2.964-1.738 4.595 0 1.63.619 3.184 1.738 4.596v6.636c-1.12 1.412-1.738 2.966-1.738 4.596 0 6.502 9.836 11.774 21.967 11.774 12.134 0 21.97-5.272 21.97-11.774 0-1.63-.62-3.184-1.738-4.596v-6.636c1.118-1.412 1.738-2.965 1.738-4.596 0-1.63-.62-3.183-1.738-4.595v-6.386c1.118-1.411 1.738-2.965 1.738-4.596"/><mask id="b" fill="#fff"><use xlink:href="#a"/></mask><path fill="#1D1D1B" d="M24.203 4.69c-10.608 0-19.57 4.434-19.57 9.683 0 1.151.438 2.29 1.301 3.383l.43.545v7.81l-.43.545c-.863 1.094-1.301 2.232-1.301 3.382s.438 2.289 1.301 3.383l.43.545v7.726l-.43.544c-.863 1.094-1.301 2.233-1.301 3.383s.438 2.289 1.301 3.383l.43.544v7.977l-.43.546c-.863 1.093-1.301 2.232-1.301 3.382 0 5.25 8.962 9.684 19.57 9.684 10.61 0 19.572-4.434 19.572-9.684 0-1.15-.439-2.288-1.302-3.383l-.43-.545v-7.976l.43-.545c.863-1.094 1.302-2.233 1.302-3.383s-.439-2.288-1.302-3.383l-.43-.544v-7.726l.43-.545c.863-1.095 1.302-2.233 1.302-3.383s-.439-2.288-1.302-3.383l-.43-.544V18.3l.43-.545c.863-1.094 1.302-2.233 1.302-3.383 0-2.084-1.462-3.755-2.689-4.79l-.07-.062C37.77 6.541 31.518 4.69 24.7 4.69l-.231.004-.265-.004zm0 70.63C10.631 75.32 0 69.228 0 61.45c0-1.823.582-3.58 1.73-5.23v-5.37C.583 49.2 0 47.444 0 45.62c0-1.824.582-3.58 1.73-5.232V35.27C.583 33.619 0 31.862 0 30.038c0-1.824.582-3.58 1.73-5.231v-5.202C.583 17.955 0 16.197 0 14.373 0 6.597 10.63.505 24.203.505l.303.002.193-.002c8.114 0 15.432 2.26 19.586 6.05 2.697 2.29 4.123 4.993 4.123 7.818 0 1.823-.582 3.58-1.732 5.232v5.202c1.15 1.652 1.732 3.408 1.732 5.23 0 1.824-.582 3.58-1.732 5.233v5.117c1.15 1.653 1.732 3.41 1.732 5.232 0 1.823-.582 3.58-1.732 5.232v5.368c1.15 1.652 1.732 3.41 1.732 5.232 0 7.777-10.632 13.869-24.205 13.869z" mask="url(#b)"/><path fill="#F8B133" d="M45.506 60.413c0 6.5-9.836 11.769-21.97 11.769-12.131 0-21.967-5.27-21.967-11.769 0-6.5 9.836-11.769 21.967-11.769 12.134 0 21.97 5.27 21.97 11.77"/><path fill="#FFF" d="M24.321 50.048c-11.69 0-21.201 5.001-21.201 11.15 0 6.148 9.511 11.15 21.201 11.15 11.691 0 21.204-5.002 21.204-11.15 0-6.149-9.513-11.15-21.204-11.15m0 23.703c-12.546 0-22.752-5.631-22.752-12.553 0-6.922 10.206-12.554 22.752-12.554 12.547 0 22.754 5.632 22.754 12.554 0 6.922-10.207 12.553-22.754 12.553"/><path fill="#FCEA0D" d="M4.708 47.075v13.296h.024c.51 5.701 9.435 10.242 20.374 10.242 10.94 0 19.865-4.54 20.375-10.242h.025V47.075H4.708z"/><path fill="#FFF" d="M4.701 60.937l.022.174c.474 5.33 9.266 9.666 19.599 9.666 10.334 0 19.125-4.337 19.598-9.666l.023-.257V48.48H4.7v12.457zm19.62 11.245c-10.917 0-19.95-4.48-21.065-10.313h-.093l-.025-.703v-14.09h42.368v14.793h-.118c-1.114 5.833-10.148 10.313-21.066 10.313z"/><path fill="#F8B133" d="M45.506 44.721c0 6.5-9.836 11.77-21.97 11.77-12.131 0-21.967-5.27-21.967-11.77s9.836-11.768 21.967-11.768c12.134 0 21.97 5.269 21.97 11.768"/><path fill="#FFF" d="M24.321 34.356c-11.69 0-21.201 5.002-21.201 11.15 0 6.148 9.511 11.15 21.201 11.15 11.691 0 21.204-5.002 21.204-11.15 0-6.148-9.513-11.15-21.204-11.15m0 23.703c-12.546 0-22.752-5.63-22.752-12.553 0-6.922 10.206-12.553 22.752-12.553 12.547 0 22.754 5.631 22.754 12.553 0 6.922-10.207 12.553-22.754 12.553"/><path fill="#FCEA0D" d="M4.708 31.383V44.68h.024c.51 5.702 9.435 10.242 20.374 10.242 10.94 0 19.865-4.54 20.375-10.242h.025V31.383H4.708z"/><path fill="#FFF" d="M4.701 45.246l.022.173c.474 5.33 9.266 9.666 19.599 9.666 10.334 0 19.125-4.337 19.598-9.666l.023-.256V32.788H4.7v12.458zm19.62 11.244c-10.917 0-19.95-4.48-21.065-10.313h-.093l-.025-.702V31.383h42.368v14.794h-.118C44.274 52.01 35.24 56.49 24.322 56.49z"/><path fill="#F8B133" d="M45.506 30.598c0 6.5-9.836 11.77-21.97 11.77-12.131 0-21.967-5.27-21.967-11.77 0-6.498 9.836-11.768 21.967-11.768 12.134 0 21.97 5.27 21.97 11.768"/><path fill="#FFF" d="M24.321 18.665c-11.69 0-21.201 5-21.201 11.149 0 6.148 9.511 11.15 21.201 11.15 11.691 0 21.204-5.002 21.204-11.15 0-6.148-9.513-11.15-21.204-11.15m0 23.704c-12.546 0-22.752-5.632-22.752-12.554 0-6.922 10.206-12.553 22.752-12.553 12.547 0 22.754 5.63 22.754 12.553 0 6.922-10.207 12.554-22.754 12.554"/><path fill="#FCEA0D" d="M4.708 15.692v13.296h.024c.51 5.7 9.435 10.241 20.374 10.241 10.94 0 19.865-4.54 20.375-10.241h.025V15.692H4.708z"/><path fill="#FFF" d="M4.701 29.554l.022.173c.474 5.33 9.266 9.666 19.599 9.666 10.334 0 19.125-4.336 19.598-9.666l.023-.256V17.097H4.7v12.457zm19.62 11.244c-10.917 0-19.95-4.48-21.065-10.313h-.093l-.025-.702V15.692h42.368v14.793h-.118c-1.114 5.833-10.148 10.313-21.066 10.313z"/><path fill="#F8B133" d="M45.506 14.907c0 6.5-9.836 11.769-21.97 11.769-12.131 0-21.967-5.27-21.967-11.77 0-6.498 9.836-11.768 21.967-11.768 12.134 0 21.97 5.27 21.97 11.769"/><path fill="#FFF" d="M24.321 2.973c-11.69 0-21.201 5.001-21.201 11.15 0 6.147 9.511 11.15 21.201 11.15 11.691 0 21.204-5.003 21.204-11.15 0-6.149-9.513-11.15-21.204-11.15m0 23.703c-12.546 0-22.752-5.632-22.752-12.554C1.57 7.2 11.775 1.57 24.321 1.57c12.547 0 22.754 5.631 22.754 12.553 0 6.922-10.207 12.554-22.754 12.554"/><path fill="#FCEA0D" d="M45.506 14.123c0 6.067-9.133 10.984-20.4 10.984-11.266 0-20.398-4.917-20.398-10.984S13.84 3.138 25.107 3.138c11.266 0 20.399 4.918 20.399 10.985"/><path fill="#FFF" d="M24.322 2.907c-10.839 0-19.657 4.328-19.657 9.646 0 5.32 8.818 9.646 19.657 9.646s19.657-4.327 19.657-9.646c0-5.318-8.818-9.646-19.657-9.646m0 20.63c-11.68 0-21.184-4.927-21.184-10.984 0-6.056 9.503-10.984 21.184-10.984 11.681 0 21.184 4.928 21.184 10.984 0 6.057-9.503 10.985-21.184 10.985"/><path fill="#F8B133" d="M40.798 14.123c0 .867-1.405 1.569-3.138 1.569-1.733 0-3.138-.702-3.138-1.57 0-.866 1.405-1.569 3.138-1.569 1.733 0 3.138.703 3.138 1.57"/><path fill="#FFF" d="M36.876 12.427c-1.401 0-2.33.548-2.33.91 0 .363.929.912 2.33.912 1.4 0 2.329-.549 2.329-.911 0-.363-.929-.91-2.33-.91m0 3.264c-2.236 0-3.922-1.012-3.922-2.354s1.686-2.354 3.923-2.354c2.236 0 3.922 1.012 3.922 2.354s-1.686 2.354-3.922 2.354"/></g></svg>