<?xml version="1.0" encoding="utf-8"?>
<!-- Generator: Adobe Illustrator 15.1.0, SVG Export Plug-In . SVG Version: 6.00 Build 0)  -->
<!DOCTYPE svg PUBLIC "-//W3C//DTD SVG 1.1//EN" "http://www.w3.org/Graphics/SVG/1.1/DTD/svg11.dtd">
<svg version="1.1" id="Layer_1" xmlns="http://www.w3.org/2000/svg" xmlns:xlink="http://www.w3.org/1999/xlink" x="0px" y="0px"
	 width="200.286px" height="212.255px" viewBox="0 0 200.286 212.255" enable-background="new 0 0 200.286 212.255"
	 xml:space="preserve">
<rect y="9.539" fill="#FFCB00" width="200.286" height="200.284"/>
<path fill="#1D1D1B" d="M134.237,172.397c0.005,0.004,0.009,0.004,0.015,0.004c1.118,0.435,2.41,0.91,3.258,1.811
	c0.345,0.366,0.556,0.863,0.759,1.359c0.055,0.052,0.106,0.104,0.161,0.156l-0.11-5.604c-1.41,0.511-2.824,1.001-4.25,1.463
	L134.237,172.397z M135.93,185.142c0.437,0.014,0.869,0.055,1.297,0.114l1.306-0.677c-1.179-2.459-2.793-4.715-4.377-6.913
	l-12.103,6.017c0,0-0.013,0.034-0.033,0.09c1.359,0.145,2.74,0.092,4.098,0.32c1.629,0.27,3.05,1.225,4.672,1.498
	C132.525,185.88,134.199,185.094,135.93,185.142z M141.645,191.011l-2.117-3.668l-21.97-3.688l-0.341,3.457l19.809,3.717
	c-0.1-0.006-0.199-0.008-0.298-0.016c-0.201,0.331-0.548,0.573-0.958,0.562c-1.75-0.031-3.443-0.396-5.117-0.867l-1.638,2.82
	l0.528,3.867c4.906-0.132,9.803-0.486,14.685-0.984c-0.806-1.696-1.586-3.407-2.176-5.191
	C141.916,191.019,141.779,191.013,141.645,191.011z M155.97,163.155c0.021-0.069,0.041-0.142,0.062-0.211
	c-2.707,1.939-5.896,3.049-9.053,4.092c-2.469,0.811-4.906,1.719-7.35,2.611l0.699,8.497c1,1.63,1.781,3.447,2.589,5.142
	c1.757,3.695,3.37,7.379,5.399,10.906l0.174-0.136l3.727,0.843l3.434-2.119c0.021-0.47,0.035-0.941,0.045-1.414l-2.175-5.601
	l2.08,0.287l0.073-0.262c-0.004-0.235-0.006-0.466-0.006-0.697c-0.006-0.892,0.009-1.772,0.027-2.657l-2.562-1.38l2.596-0.217
	c0.045-2.405,0.055-4.799-0.281-7.222c-0.256-1.862-0.705-3.873-0.549-5.76C155.031,166.233,155.492,164.704,155.97,163.155z
	 M197.652,127.683l-1.517-0.308l-6.755,2.687l-1.214-0.537l-2.05,0.462l-0.379,1.46l-3.49,1.383l-24.436,28.197l-2.199,6.455
	l0.379,28.658l-0.985,3.688l-1.746,1.847l-1.897,0.151l-11.989-24.05l-1.062-1.615l-3.566-3.146l-2.809-0.617l-33.997,11.527
	l16.317-33.576l-15.937-3.115L80.45,174.396l-2.845,7.379l-2.656,1.691v3.84l16.391,2.61l2.731-0.462l37.335-13.828l1.595,0.535
	l2.427,2.077l13.583,25.817l2.657,2.072h2.73l2.276-2.535l2.05-3.381l0.986-4.072l-0.834-28.158l0.834-4.188l25.724-28.966
	l1.443-0.462l0.834,0.769l1.669-0.307l0.76-1.384l7.664-2.38l0.379-2.077L197.652,127.683z M92.06,185.614l-9.673-1.266l4.779-2.422
	l1.139-3.688l-7.855,2.995l1.593-6.221l16.962-24.664l12.86,1.61l-16.731,33.079L92.06,185.614z M99.231,150.979l-5.063,7.726
	l3.926,3.743l2.39-1.211l4.325-0.459l1.879,0.23l4.496-8.818L99.231,150.979z M97.581,162.969
	c-7.569,4.782-10.814,21.376-10.814,21.376l5.407,0.925l2.732-0.463l11.724-23.339C106.63,161.468,103.613,160.03,97.581,162.969z
	 M108.906,162.448c-1.412,2.998-10.415,20.976-10.415,20.976l1.878-0.459c0,0,2.787-9.774,6.887-10.604
	c3.875-0.787,5.976,5.533,5.976,5.533s2.731-0.749,3.983-1.097C116.363,171.034,112.777,163.255,108.906,162.448z M113.518,182.733
	c0,0-0.627,17.92-9.221,19.304c-5.239,0.845-4.895-13.945-4.895-13.945l-6.203,2.249l-7.057-0.521c0,0-0.968,24.84,15.197,22.246
	c16.161-2.595,15.877-30.483,15.877-30.483L113.518,182.733z M76.886,134.654l-1.306-1.407l-5.043-1.41l-1.392-4.932l3.132,3.257
	l0.103-0.063l0.367,0.848c0.507,1.176,1.858,1.711,3.017,1.196l2.625-1.165l13.787,24.9l5.918-8.989l16.846,2.998
	c0,0-3.528,7.721-5.521,12.274c3.303,0.459,6.147,7.779,6.147,7.779l17.081,1.612l24.863-10.371l10.928-25.815l4.324-0.923v-2.304
	l-32.325,0.921l-49.965-7.445l0.932-0.414l49.641,7.396l29.442-0.845l-49.033-6.838l-26.85-1.333
	c0.613-0.657,0.815-1.646,0.433-2.523l-2.164-5.003l38.806-17.22l0.75,1.732c0.091,0.208,0.219,0.387,0.366,0.541l-0.192,0.023
	l0.397,4.826l-0.147,0.938l-2.738,17.375c4.953,0.396,9.873,1.055,14.777,1.828v-14.438l-4.405-6.334l7.297,5.399l-0.774,15.708
	c6.209,1.014,12.397,2.155,18.608,3.136l0.296-1.177l2.067-16.522l4.323-11.311l0.459-8.289l-26.812,7.274l-9.079,1.08l12.458-5.531
	c0.928-0.409,1.35-1.504,0.943-2.445l-11.357-26.24c-0.406-0.94-1.486-1.368-2.415-0.956l-0.323,0.143l2.84-6.901l0.586,1.063
	l8.043,8.76l-6.373-4.609l1.062,3.688l-0.456,0.921l1.52,3.535l6.525,3.381l-6.222-1.691l3.642,8.915l6.07-8.452l0.911-3.228
	l1.517-1.384l-1.213-2.92l1.975-1.382l-3.189-5.225l0.607-2.92l-1.062-3.535v-6.914l1.517,6.914l2.127,4.613h-1.52l2.732,3.686
	l-2.732-1.23l3.492,7.223l-2.277-0.614l1.518,3.688l-2.582,0.921l-0.452,2.767l0.452,2.305l-1.82-0.768l-5.768,8.452l4.25,8.453
	l2.125-3.69l8.045-3.841l6.828-13.985V43.777l-2.276-6.762l3.036,8.759v26.74l-6.68,13.831l-8.192,3.688l-1.673,3.074l21.4-3.997
	l3.643,0.154v-8.913l-1.67-6.454l0.152-6.148l-1.365-2.304l-1.82-13.062l-2.961-7.069l-0.985-7.376l-4.401-8.913l-12.067-6.301
	l-2.351-1.845l-2.58-1.382l-6.225-3.534l0.912,2.153l2.73,3.686l-4.059,14.792l-4.212,3.226l-1.708-6.107l-2.895,1.266l-2.112-0.346
	l-2.349-2.585l2.404,1.893h2.391l2.22-1.037l3.757-8.124l-2.847,7.836l1.479,5.879l3.473-2.363l3.244-11.294l0.283-3.633
	l-3.412-4.838l-0.797-4.841l-2.107-3.574l-5.626-6.167L125.184,0l-3.756,1.152l-4.553,3.343l-1.537,3.457v5.591l2.732,7.492
	l2.333,0.978l3.983,9.451l1.197,0.578l0.737-1.154l1.082-0.23l0.513-0.519v-1.556l0.284,1.786l-0.739,0.865l0.455,0.519v2.036
	l3.125,8.832l-0.82,0.046l1.914,6.691l-2.959,5.987l-1.867,14.185l-5.295,2.35c-0.928,0.413-1.351,1.506-0.944,2.447l0.749,1.732
	L83.013,93.275l-2.165-4.999c-0.508-1.173-1.859-1.707-3.018-1.195l-3.398,1.508l-0.775-0.566l-2.435-18.489l-2.698-5.464
	l0.951-4.754l0.704-2.461l-0.209-0.012l0.568-2.842l1.74-10.212l-1.565-2.64l-7.131-3.877l1.564-3.41l-4.521-5.042l0.348-6.162
	l-3.305,2.289l-5.044,2.817L22.537,51.362l-8.001,14.439l-4.348,8.804l6.435,4.373l11.478,3.376l12.103,5.251l-4.112-0.49
	L9.278,79.84l0.459,8.291l4.323,11.311l2.066,16.521l2.93,11.581l0.246,21.994l2.93,14.355l-1.068,12.979l4.538,0.387l-3.348,1.797
	l0.88,3.198l2.078-0.289l-2.607,6.72l3.914,2.412l3.723-0.842l4.084,3.129l14.822,0.316l0.572-4.174l-1.802-3.102l-9.556-6.01
	l1.918-3.885l-1.907-1.779l1.275-15.508l-5.331-15.715l1.295-15.735l-1.456-29.499l7.299-5.399l-4.406,6.338v27.754l-1.248,15.164
	l4.755,17.17l-0.294,14.664l1.682,1.758l-2.22,4.785l3.723,1.937l4.565,2.843c0,0,9.662-0.832,9.729-1.639
	c0.066-0.805-1.059-3.788-1.059-3.788l-13.167-6.548l10.227-49.328l-3.555-22.566l7.727,18.777l7.652,9.153l4.87,5.285l5.043,1.056
	L76.886,134.654z M127.918,31.753l1.192-0.405l1.479-0.979l-1.139,1.21l-1.271,0.462L127.918,31.753z M50.188,100.803l-0.923-5.856
	l0.923,1.495V100.803z M58.845,95.833l-0.83-1.681l1.913-6.691l-6.349-0.354l-2.781-2.641H48.45l-0.457,4.067l-6.165-0.734
	l4.013-4.39l-0.174-0.467l-0.868-2.348l-1.741-6.165l1.218-5.812l-0.869-4.224l6.783-16.026l-4.697,15.848l0.348,5.812l-1.217,4.228
	l2.782,9.33h3.48l2.607,3.171l7.479-0.176l1.913-2.995l1.913-0.88l0.205-1.024l3.262,7.928l1.048,1.254l-9.578,4.251
	C59.367,95.276,59.072,95.532,58.845,95.833z M66.537,120.916l-3.131-2.286l-1.751-13.307l7.007,16.188L66.537,120.916z
	 M62.71,29.877l2.957,3.983l-0.695,3.06l5.564,2.995l2.174,3.522l4.174-5.461l7.391,0.706l1.306-1.674l2.174-4.578l1.13-1.496
	v-1.938l1.217-2.112l-0.348-3.17l0.783-1.762l-2.175-7.484l-2.52-5.105c0,0-5.653-4.668-6-4.58c-0.349,0.09-4.436-0.001-4.436-0.001
	s-5.825,2.027-6.087,2.202c-0.261,0.177-6.435,7.572-6.435,7.572l-1.217,5.899v7.837l8.869,4.138L62.71,29.877z"/>
</svg>
