<?xml version="1.0" encoding="utf-8"?>
<!-- Generator: Adobe Illustrator 15.1.0, SVG Export Plug-In . SVG Version: 6.00 Build 0)  -->
<!DOCTYPE svg PUBLIC "-//W3C//DTD SVG 1.1//EN" "http://www.w3.org/Graphics/SVG/1.1/DTD/svg11.dtd">
<svg version="1.1" id="Layer_1" xmlns="http://www.w3.org/2000/svg" xmlns:xlink="http://www.w3.org/1999/xlink" x="0px" y="0px"
	 width="200.286px" height="216.082px" viewBox="0 0 200.286 216.082" enable-background="new 0 0 200.286 216.082"
	 xml:space="preserve">
<rect y="15.544" fill="#FFCB00" width="200.286" height="200.286"/>
<path fill="#1D1D1B" d="M131.529,98.741l2.273-3.279l-12.125-5.55l-5.438-7.318l3.415,3.283l1.643-2.016l1.389-1.389l-1.009-1.009
	l2.021,1.009l0.883-1.513v-0.883l1.515,0.378l0.884-0.124l0.759-1.137v-2.017l0.662-2.901l3.033-2.142l1.357-3.659V63.81l-2.4-5.802
	c0,0-8.714-5.801-9.094-5.801h-8.335l-4.296,2.27l-4.039,5.424l-2.023,3.282l0.761,2.769l3.407,4.792l-4.168-4.159l-4.58,0.759
	l13.928,9.958l0.883,2.019l2.65,2.547l-3.911-2.298l-6.315,2.523l5.81-4.288l-8.999-6.304l-5.209-3.784l5.589-1.797l-0.702-2.738
	l-9.622,2.075l-3.284,2.712l-3.537,4.288l-3.788,2.017L63.581,89.157l-8.589,4.792l-5.809,4.286c0,0-10.104,10.344-10.862,10.847
	c-0.758,0.502-7.326,6.053-7.326,6.053l-2.021,13.621l1.77,4.285l13.387,2.521h12.63l8.083,1.263l0.628,0.313H52.908l-8.715,0.189
	l-12.503-2.459l4.927,10.971l17.618,29.32l-3.789,40.67h25.006l5.115-28.752l-3.599-18.918l3.599-19.86l-1.704,20.241l3.788,17.971
	l-3.195,29.318h9.014c0,0,17.672,0.565,17.482,0c-0.188-0.569-6.818-59.396-6.818-59.396L85.87,139.789l-3.597,3.024l-9.347-1.952
	l-1.214-0.605l1.214,0.605h9.852l6.821-9.584l4.545-6.811c0,0,5.81-6.055,6.567-6.307c0.759-0.252,5.558-3.783,6.315-4.035
	c0.757-0.25,6.063-6.558,6.063-6.558l-7.756-5.297l-1.844-1.259l-3.031-7.818l3.914,7.564l10.23,6.055l10.863,5.548l2.525-8.323
	L131.529,98.741z M171.311,75.947l-3.22,3.783l2.557-4.918l-1.041-0.758l-3.693,3.123l3.882-4.825l-1.608-1.608l-5.398,4.35
	l-0.228-0.189l3.764-3.844l-0.759-10.341l-3.347,1.451l-1.199-2.396l2.337-1.61l-1.423,0.41l-0.757-0.156l1.293-2.24l-1.229,0.915
	l-1.611-0.789l2.179-2.458l-2.587,1.575l-0.755-1.923l-0.636,1.418l0.853,1.358l-0.473,1.166l1.166,0.567l-0.125,1.071l1.012,1.199
	l-0.318,0.442l0.76,11.035l1.262-1.011v3.281l0.59,0.875l-0.904-0.752l0.093-2.837l-2.841,3.782l0.282,5.298l-19.227,18.632
	l-6.915-1.513l-4.453,6.905l-1.609,6.809l6.819,3.972l13.169-5.77l16.101-18.915l7.673-7.19l0.567-3.215l-2.273,1.607l2.273-3.403
	V75.947z M128.496,82.472h-2.936l-0.758,1.515l-1.704,0.281l-2.746,2.462l9.755,3.215l3.695-5.295l2.651-7.474l-6.535-2.174
	L128.496,82.472z M158.997,59.11l-0.094-0.943l-1.136-0.57l0.566-1.323l-0.853-1.23l0.475-0.947L158,51.307l0.256,2.066l5.101-7.091
	l-4.674-31.908l-5.106,1.137l4.033,32.628h-1.073l-1.326,5.013l-2.273,1.892l0.567,6.336l-10.798,15.606L137.4,77.27l-2.747,7.661
	l-3.219,4.447l6.346,1.418h5.683l10.515-9.743l5.02-11.914l0.947-3.595V60.72v-0.38L158.997,59.11z M159.944,56.118l1.489,0.63
	l1.796-1.387l-1.796,2.899h0.785l1.966-0.631l-2.751,2.27l1.036,1.515l4.801-1.765v-4.792l0.758-1.892l-1.263-0.128l0.38-3.026
	l-1.137-0.252l-0.38-3.279h-1.517l-2.525,3.153l-2.904,3.784l0.757,1.64c0,0,2.238-1.144,3.64-1.929
	C161.802,54.058,159.944,56.118,159.944,56.118z M150.853,13.745l0.757,1.137l8.335-1.639l1.064-1.308l6.799-1.484l-1.727-9.019
	l-8.145,0.533l-0.406-0.641l-8.384,1.086v0.868l-6.624,1.243l1.033,9.467L150.853,13.745z M157.435,0h-6.708v2.101l6.708-1.052V0z"
	/>
</svg>
