<?xml version="1.0" encoding="utf-8"?>
<!-- Generator: Adobe Illustrator 15.1.0, SVG Export Plug-In . SVG Version: 6.00 Build 0)  -->
<!DOCTYPE svg PUBLIC "-//W3C//DTD SVG 1.1//EN" "http://www.w3.org/Graphics/SVG/1.1/DTD/svg11.dtd">
<svg version="1.1" id="Layer_1" xmlns="http://www.w3.org/2000/svg" xmlns:xlink="http://www.w3.org/1999/xlink" x="0px" y="0px"
	 width="200.285px" height="201.217px" viewBox="0 0 200.285 201.217" enable-background="new 0 0 200.285 201.217"
	 xml:space="preserve">
<rect fill="#FFCB00" width="200.285" height="200.285"/>
<path fill="#1D1D1B" d="M122.143,167.086l-5.895,1.576l-13.948,4.485l-8.468-4.485l0.333,32.555h32.958l-3.902-11.465
	L122.143,167.086z M82.957,148.904l-2.49,2.602v4.981l1.245,1.328l-0.581,3.212l3.32,3.764h3.098l-2.718-9.011l-0.462,0.266
	l-1.412-1.038c0,0-0.955-1.743-0.955-1.87c0-0.121,1.975-0.2,1.976-0.2L82.957,148.904z M83.979,152.938l0.031,0.12l0.823,2.726
	L83.979,152.938z M92.67,168.083l1.993-0.914l-0.747-6.225l-2.243-4.65l-0.248-9.712l-0.747-3.405l-3.654-0.831l-3.57,2.573
	l-0.497,1.663l1.052,3.733l2.269,8.47l1.742,5.562L92.67,168.083z M84.661,148.117v-0.289l2.656,0.289l3.362-1.162l0.54,2.449
	l-1.247,2.201l-1.163,1.035h-1.784L84.661,148.117z M97.07,139.44h-2.988l-2.658,2.905l0.914,6.559l-0.165,6.811
	c0,0,2.406,4.978,2.489,5.229c0.084,0.25,0.664,8.054,0.664,8.054l3.842,2.242l2.884,1.411l3.569-1.411l5.562-1.994l4.318-1.162
	l-2.574-1.577l-3.818-0.414l-2.824-2.242l-3.321-9.715l-2.491-8.715l0.083-4.237L97.07,139.44z M99.168,146.955
	c0,0-0.604,2.656-0.853,2.843c-0.248,0.187-2.271,0.601-2.271,0.601l-2.212-1.494l-0.912-4.896l2.656-0.997l3.592,0.497V146.955z
	 M110.187,144.257l-1.744-3.156l-3.817-0.994l-3.404,2.239v2.908c0,0.497,2.74,10.792,2.74,10.792l2.574,5.147l2.573,4.15
	l4.649,0.748l2.322,1.991l5.23-0.997l3.073-2.298l1.577-5.006l2.988-4.568l-0.332-1.121l-1.992-1.452l-3.569-7.639l4.731,7.556
	l2.326,2.077l1.492-0.542l-2.904-1.369l-2.906-4.316l3.154,3.819l4.067,1.866h3.405c0,0,1.494-1.452,1.66-1.701
	c0.164-0.247,2.16-2.407,2.16-2.407l-0.5-3.985l-3.652-2.49h-1.91l-2.27,1.1l1.855-1.432l1.908-0.165l-3.154-2.077l-3.322-1.99
	l-7.223-3.819l-10.959,2.073l-3.234,2.242l-1.414,0.414l2.906,1.08l1.66,3.571l4.566,9.38l2.574,3.902l-3.322-3.571L110.187,144.257
	z M108.195,148.242l-1.828,1.162l-2.324-0.5l-1.41-4.647l1.576-1.245l2.822-0.666l1.164,0.956V148.242z M130.858,145.42l0.679-0.524
	l-1.26,2.598L130.858,145.42z M178.928,119.186l-8.635-9.963l-12.951-6.973l-24.407-10.295l-5.81,10.295l-3.24,3.984l-8.383,12.286
	l-7.392,1.911l-8.943-1.911l-6.579-7.639l-5.037-1.659l-4.594-5.979l-2.491-7.304l-2.491-7.971l-2.989,1.992l-3.652-0.662
	L41.447,99.59l-17.599,16.439l-3.82,27.73l2.585,37.026v15.272l9.536,3.491h6.641l7.804-2.825l3.488-1.66l-9.964-42.127l0.83-16.484
	l1.329,19.33l8.633,36.626l0.335,8.804h41.84l0.167-32.271l-5.037-3.598l-3.811,0.386l-3.938-4.702l0.775-3.102l-1.329-0.772
	l0.111-5.548l2.546-3.253l-2.103-1.604l-17.102-23.577l19.593,20.089l-6.31-28.89l12.163,26.398l1.618-23.742l6.641,20.089
	l3.323-15.773l1.824,16.605l8.264-16.104v14.113l9.337-16.273v13.448l12.951-11.288l-8.136,13.282l15.606-7.473l-9.795,9.463
	l16.271-5.644l-11.455,9.463l5.979,5.813l-0.999,4.857l-3.653,4.437h-7.14l-0.828,2.66l-1.493,1.163l-1,4.923l-2.82,2.301
	l0.828,22.494l4.818,11.63h36.527l11.124-50.978l3.653-23.246L178.928,119.186z M72.828,74.464l3.543,1.661l5.865,20.257
	l10.516,13.062l9.522,8.635h11.288l4.871-6.198l8.08-11.183l5.312-9.519l3.985-15.607c0,0,1.661-0.997,1.884-1.328
	c0.221-0.333,5.09-17.157,5.09-17.157l-1.216-2.769l-1.44,1.44l1.44-11.182l-1.549-14.058l-4.318-11.512l-5.204-6.309L115.887,6.83
	l-15.744-0.775l-7.611,1.218l-7.416,3.542l-5.203,4.317l-7.748,7.861l-1.77,6.086l1.328,26.566l-3.765,0.443v3.32
	c0,1.218,0.665,7.639,0.776,7.972C68.843,67.713,72.828,74.464,72.828,74.464z M121.575,74.8c-0.704,0-1.274-0.396-1.274-0.887
	c0-0.181,0.08-0.349,0.215-0.49c0.084,0.165,0.307,0.281,0.572,0.281c0.336,0,0.609-0.189,0.609-0.424
	c0-0.094-0.048-0.182-0.124-0.252h0.002c0.703,0,1.272,0.396,1.272,0.885C122.848,74.403,122.278,74.8,121.575,74.8z
	 M118.297,71.614c0.912-0.36,2.02-0.472,3.278-0.582s2.478-0.055,3.693,0.416c1.219,0.469,1.745,1.161,1.745,1.161l-1.834,1.895
	c-0.065-1.298-1.605-2.337-3.502-2.337c-1.937,0-3.506,1.084-3.506,2.423c0,0.082,0.006,0.162,0.018,0.241l-2.053-1.393
	C116.137,73.438,117.383,71.973,118.297,71.614z M92.81,75.131c-0.702,0-1.273-0.395-1.273-0.885c0-0.181,0.079-0.351,0.214-0.491
	c0.084,0.166,0.306,0.281,0.572,0.281c0.335,0,0.607-0.188,0.607-0.425c0-0.093-0.046-0.18-0.122-0.25h0.002
	c0.703,0,1.271,0.395,1.271,0.885S93.512,75.131,92.81,75.131z M88.768,71.448c1.218-0.471,2.436-0.526,3.695-0.416
	c1.259,0.11,2.367,0.222,3.279,0.582c0.912,0.358,2.158,1.824,2.158,1.824l-2.053,1.393c0.014-0.079,0.019-0.159,0.019-0.241
	c0-1.339-1.571-2.423-3.506-2.423c-1.896,0-3.437,1.039-3.502,2.337l-1.832-1.895C87.025,72.609,87.551,71.917,88.768,71.448z
	 M32.231,200.13l-6.558-2.325v3.408H49.5v-4.571l-9.714,3.488H32.231z"/>
</svg>
