<?xml version="1.0" encoding="utf-8"?>
<!-- Generator: Adobe Illustrator 15.1.0, SVG Export Plug-In . SVG Version: 6.00 Build 0)  -->
<!DOCTYPE svg PUBLIC "-//W3C//DTD SVG 1.1//EN" "http://www.w3.org/Graphics/SVG/1.1/DTD/svg11.dtd">
<svg version="1.1" id="Layer_1" xmlns="http://www.w3.org/2000/svg" xmlns:xlink="http://www.w3.org/1999/xlink" x="0px" y="0px"
	 width="200.286px" height="201.213px" viewBox="0 0 200.286 201.213" enable-background="new 0 0 200.286 201.213"
	 xml:space="preserve">
<rect x="0.001" fill="#FFCB00" width="200.285" height="200.285"/>
<path fill="#1D1D1B" d="M128.318,139.23c0.141-2.021-6.919-4.15-15.767-4.761c-8.852-0.604-16.133,0.538-16.271,2.56
	c-0.137,2.021,6.918,4.15,15.768,4.758C120.897,142.397,128.179,141.249,128.318,139.23z M107.564,138.644
	c0.059-0.849,2.224-1.387,4.841-1.207c2.614,0.18,4.688,1.011,4.627,1.855c-0.057,0.846-2.223,1.388-4.838,1.208
	C109.577,140.32,107.506,139.49,107.564,138.644z M101.951,88.439c4.044,0.445,7.785-3.426,8.357-8.644
	c0.571-5.219-2.24-9.809-6.284-10.254c-4.045-0.443-7.784,3.428-8.357,8.646C95.095,83.407,97.908,87.996,101.951,88.439z
	 M129.194,71.638c-4.043,0.443-6.857,5.035-6.284,10.254c0.572,5.218,4.313,9.089,8.357,8.644c4.044-0.443,6.856-5.031,6.284-10.252
	C136.978,75.065,133.237,71.194,129.194,71.638z M113.423,113.963c-10.223-0.614-18.753,2.983-19.055,8.035l-1.187,16.525
	c0.2-3.329,9.094-5.504,19.868-4.858c10.374,0.621,18.703,3.63,19.131,6.824l-0.792-16.701
	C131.231,118.906,123.358,114.556,113.423,113.963z M121.124,82.088c-0.71-6.493,2.788-12.201,7.816-12.753
	c1.001-0.11,1.982,0,2.924,0.285c-4.205-8.451-11.83-11.509-14.207-11.509c-0.439,0-10.303,0.771-16.487,9.218
	c1.031-0.359,2.116-0.511,3.223-0.389c5.028,0.551,8.528,6.261,7.815,12.752c-0.714,6.489-5.366,11.306-10.395,10.751
	c-2.198-0.239-4.103-1.466-5.492-3.31c0.315,5.866,1.719,12.908,4.671,21.374c4.889-5.789,22.753-4.191,26.744,0.597
	c2.976-6.31,4.856-11.902,5.908-16.85c-0.671,0.295-1.376,0.504-2.125,0.585C126.491,93.391,121.839,88.577,121.124,82.088z
	 M124.892,112.748l0.899,0.148c0,0,0.65-1.414,1.44-2.946c0.4-0.77-5.602-3.916-12.248-4.437
	c-6.539-0.515-13.543,1.696-13.543,3.343v2.246l1.947-0.352c0,0,0.172,2.163,0.249,3.142c-0.157-2.038,21.107-0.848,20.206,1.35
	C122.946,117.437,124.892,112.748,124.892,112.748z M103.643,113.964c-0.002-0.024-0.004-0.045-0.006-0.071c0,0.001,0,0.001,0,0.001
	C103.639,113.921,103.641,113.939,103.643,113.964z M103.643,113.964C103.679,114.418,103.689,114.557,103.643,113.964
	L103.643,113.964z M112.3,145.754c-4.373,0-5.179,0.524-18.294-5.612c1.72,2.321,15.044,6.81,15.044,6.81l-2.17,52.999h4.191
	l2.619-52.55c0,0,11.676-0.974,17.888-6.135C117.421,146.489,116.671,145.754,112.3,145.754z M0,0.929v199.021h19.161v-20.288
	l2.394-28.442l14.372-13.089l10.178-12.361l10.779-8.681l10.478-11.65l6.288-1.82l11.076,1.82l1.197,10.392l7.258,1.859
	l-5.461-3.795l0.299-8.456l-5.089-6.61l4.191-17.739h4.489l-1.796-7.708l6.508-22.154l9.659-8.981l14.669-6.288l7.669,3.293
	l9.307,9.581c0,0,6.376,13.472,6.676,14.37c0.3,0.897,2.694,11.375,2.694,11.375l-4.191,19.063l3.593,2.129l-4.191,11.439
	l0.599,3.427l1.797,1.666l-0.3,3.529l26.045,13.234l12.276,23.052l7.185,22.453l2.992,2.694l1.499,4.192l5.986,11.378V0.929H0z
	 M39.22,176.366l3.892-42.059l-3.591,22.597l-4.192,23.054l2.694,19.992h2.095l-0.299-18.495l14.968-55.983L39.22,176.366z
	 M161.945,172.816l-9.858,20.613v7.783l2.393-1.263l0.3-5.323l5.989-11.675L161.945,172.816z M164.66,138.13l-5.391,10.095
	l2.354,21.448l0.335,3.033l2.702-23.284V138.13z M161.958,172.706l-0.013,0.11l0.021-0.042L161.958,172.706z M164.658,193.133
	l-4.189,6.817h4.189l3.594-7.718l-1.796-7.482l5.535-17.715c-1.619,4.508-7.077,17.849-7.333,18.611
	C164.36,186.544,164.658,193.133,164.658,193.133z M172.443,165.589l-0.452,1.446C172.274,166.247,172.443,165.723,172.443,165.589z
	"/>
</svg>
