<?xml version="1.0" standalone="no"?>
<!DOCTYPE svg PUBLIC "-//W3C//DTD SVG 1.1//EN"
"http://www.w3.org/Graphics/SVG/1.1/DTD/svg11.dtd">

<svg xmlns="http://www.w3.org/2000/svg" version="1.1">
     <svg id="opop" viewBox="-190.5 379 223 35">
      <style>.st0{fill:#FFF}</style>
      <path class="st0" style="fill: #FFF;" d="M29 385.7c-4.7 0-7.1 3.3-7.1 3.3l.5-2.9H10.8l-1.3 5.5h1.9c.2 0 .4.2.4.5l-3.3 13.7H18l3-12.5c1.6-.6 3.1-.9 4.7-.9 1.4 0 2.8.3 2.8.3l3.7-6.5c0-.1-1.3-.5-3.2-.5zm-165.7 12h1.8c10.8 0 15.1-4.4 16-8.4 1.2-5.2.1-9.9-11.9-9.9h-13.5l-1.3 5.4h2c.2 0 .4.2.4.5l-3.5 14.7c0 .2-.2.3-.4.3h-2.2l-1.3 5.4h15.4l1.3-5.4h-2.9c-.2 0-.4-.2-.4-.5l.5-2.1zm2.8-11.8h2.6c3.2 0 3.7.9 3.3 2.6-.4 1.8-2 2.7-4.7 2.7h-2.3l1.1-5.3zm61.8-.2c-2.6 0-5 1-7.2 2.5v-2.1h-11.3l-1.3 5.4h1.9c.2 0 .4.2.4.5l-3.9 16.3c0 .2-.2.3-.4.3H-96l-1.3 5.4H-83l1.3-5.4h-2c-.2 0-.4-.2-.4-.5l.7-2.8c1.1.4 2.8.8 5.1.8 7.9 0 12-5.6 13.2-10.6 1.3-5.2-.6-9.8-7-9.8zm-7.6 15.4c-1.1 0-1.9-.2-2.5-.3l2.1-8.8c.6-.3 1.8-.8 3-.8 1 0 1.7.2 2.1.6.4.4.6 1 .6 1.9 0 2.6-1.1 7.4-5.3 7.4zm56-1.7l4.8-20.1h-11.9l-1.3 5.4h2c.2 0 .4.2.4.5L-33 399c-1.1 4.4 0 6.7 4.6 6.7h5.7l1.3-5.4h-1.5c-.5 0-.9-.4-.8-.9zm-11.1-13.3h-11.9l-1.3 5.5h2c.2 0 .4.2.4.5l-1.8 7.4c-1 .8-2.1 1-3.7 1-1 0-1.7-.7-1.4-2l2.9-12.3h-11.9l-1.3 5.5h1.9c.2 0 .4.2.4.5-.4 1.7-1.7 7.1-1.7 7.1-1.1 4.4 1.2 7 6.2 7 3 0 6.6-1.1 8.1-3 .5 2.2 2.1 2.6 5.1 2.6h5.6l1.3-5.4h-1.4c-.5 0-.9-.5-.8-1l3.3-13.4zm43.2-.2H4.5l-2.2 1.6c-2.2-.9-4.5-1.8-7.5-1.8-9.5 0-14.5 6.8-14.6 13.5 0 2 .6 3.8 1.9 5 1.3 1.3 3.2 1.9 5.6 1.9 2.3 0 5.7-1.1 7.8-3 .6 2 2.4 2.7 5.1 2.7h5.6l1.3-5.4H6c-.5 0-.9-.5-.8-1l3.2-13.5zm-12.8 14c-.5.3-1.7.8-2.9.8-5.9 0-1.7-10.3 2.7-10.3 1.1 0 1.8.3 2.3.6l-2.1 8.9zM-170.1 379c-8.6 0-17.8 4.4-19.9 13.2-1.9 7.9 2.9 13.9 13.7 13.9 13.2 0 18.4-7.3 19.9-13.4 1.4-5.8-.5-13.7-13.7-13.7zm2.4 14.1c-.8 3.2-2.7 7-7.4 7-4 0-4.9-2.9-3.8-7.4.9-3.7 3-7.7 7.7-7.7 4.3 0 4.6 3.4 3.5 8.1zm74 3c1.5-6.5-2.7-10.3-10.8-10.3-10.4 0-14.3 5.6-15.4 10.1-1.2 5.2 1.3 10.3 10.8 10.3 10.3-.1 14.3-5.6 15.4-10.1zm-9.6-.1c-.5 2.3-1.7 5-4.8 5-2.4 0-3-1.9-2.2-5.1.8-3.4 2.6-5.1 4.9-5.1 2.3 0 3 1.6 2.1 5.2z"></path>
    </svg> 

</svg>