<svg xmlns="http://www.w3.org/2000/svg" xmlns:xlink="http://www.w3.org/1999/xlink" width="311" height="50" viewBox="0 0 311 50">
    <defs>
        <path id="a" d="M33.48.045V28.18H.089V.045H33.48z"/>
    </defs>
    <g fill="none" fill-rule="evenodd">
        <g transform="translate(277.35 10.204)">
            <mask id="b" fill="#fff">
                <use xlink:href="#a"/>
            </mask>
            <path fill="#164193" d="M28.884.045c-6.686 0-9.972 4.625-9.972 4.625l.673-4.1H3.26L1.432 8.233h2.725a.54.54 0 0 1 .526.664L.088 28.179h13.334l4.232-17.621c2.186-.866 4.358-1.286 6.63-1.286 1.915 0 4.002.442 4.002.442L33.48.587s-1.86-.542-4.597-.542" mask="url(#b)"/>
        </g>
        <path fill="#164193" d="M79.369 10.166h3.587c4.463 0 5.132 1.217 4.564 3.558-.601 2.477-2.764 3.694-6.633 3.694h-3.245l1.727-7.252zm-3.88 16.397h2.501c15.135 0 21.074-6.118 22.412-11.718 1.73-7.235.145-13.825-16.652-13.825h-18.9l-1.798 7.583h.934l1.856-.001c.348 0 .603.322.522.659l-4.9 20.5a.537.537 0 0 1-.523.411H57.88l-1.798 7.583h21.527l1.798-7.583h-4.103a.536.536 0 0 1-.524-.659l.708-2.95zM155.214 31.796a14.44 14.44 0 0 1-3.581-.432l2.972-12.415c.865-.474 2.535-1.074 4.252-1.074 1.383 0 2.354.284 2.964.87.593.57.88 1.454.874 2.706-.02 3.578-1.606 10.345-7.48 10.345m10.66-21.592c-3.708 0-7.042 1.441-10.144 3.474l-.006-2.947h-15.88l-1.809 7.67 2.742.007c.335 0 .581.313.504.638l-5.44 22.887a.515.515 0 0 1-.5.396h-3.015L130.518 50h20.195l1.808-7.67-2.754.002a.54.54 0 0 1-.526-.664l.92-3.91c1.519.536 4.002 1.184 7.13 1.184 11.08 0 16.947-7.895 18.61-14.88 1.76-7.396-.986-13.858-10.027-13.858M232.938 28.92l6.685-27.9h-16.727L221.093 8.6l2.746-.002c.35 0 .607.322.526.658l-4.603 19.206c-1.479 6.176-.05 9.272 6.492 9.292 3.248.01 7.97-.02 7.97-.02l1.8-7.577h-2.102a1.006 1.006 0 0 1-.984-1.236M217.19 10.204h-16.492l-1.791 7.502h2.71c.34 0 .593.316.514.646L199.705 28.5c-1.354 1.099-2.968 1.387-5.175 1.387-1.393 0-2.379-.913-1.903-2.726l4.055-16.957h-16.453l-1.786 7.502h2.665c.341 0 .593.313.514.644-.548 2.3-2.34 9.794-2.34 9.794-1.458 6.095 1.68 9.611 8.546 9.611 4.16 0 9.158-1.528 11.266-4.145.72 3.056 2.954 3.63 7.12 3.63h7.803l1.794-7.49-1.892-.002a1.103 1.103 0 0 1-1.077-1.357l4.348-18.187zM260.32 30.086c-.735.467-2.408 1.063-4.128 1.063-8.31 0-2.455-14.391 3.862-14.364 1.613 0 2.555.39 3.248.796l-2.983 12.505zm18.05-19.595h-5.49l-3.156 2.201c-3.064-1.307-6.305-2.488-10.57-2.488-13.428 0-20.5 9.524-20.55 18.931-.014 2.853.915 5.252 2.686 6.938 1.857 1.769 4.578 2.703 7.867 2.703 3.235 0 7.996-1.594 10.979-4.256.896 2.786 3.444 3.732 7.207 3.732h7.84l1.879-7.627-2.083-.002c-.73 0-1.267-.677-1.099-1.381l4.49-18.75zM31.632 20.176c-1.085 4.487-3.794 9.76-10.323 9.76-5.618 0-6.837-4.026-5.333-10.365 1.23-5.184 4.105-10.692 10.633-10.692 6.172 0 6.598 4.784 5.023 11.297M28.281.52C16.395.52 3.494 6.695.56 18.886c-2.63 10.931 4.027 19.407 19.077 19.407 18.384 0 25.632-10.17 27.669-18.64C49.267 11.499 46.68.52 28.28.52M121.681 24.63c-.757 3.167-2.41 7.042-6.796 7.042-3.404 0-4.192-2.729-3.127-7.182 1.148-4.8 3.685-7.182 6.914-7.182 3.347 0 4.227 2.231 3.009 7.323m13.49.064c2.179-9.132-3.761-14.49-15.172-14.49-14.587 0-20.187 7.81-21.702 14.174-1.733 7.275 1.817 14.397 15.192 14.397 14.517 0 20.166-7.727 21.682-14.08"/>
    </g>
</svg>
