<svg xmlns="http://www.w3.org/2000/svg" width="80" height="80" viewBox="0 0 80 80"><g fill="none" fill-rule="evenodd"><path d="M0 0h80v80H0z"/><path fill="#2A2DF9" fill-rule="nonzero" d="M53.067 54.84c-.818.133-1.608.266-2.448.406.578 3.096-.579 5.749-1.99 8.43 1.017.156 1.996.221 2.928.463 1.042.277 2.102.597 3.046 1.102 1.317.704 1.697 1.974 1.106 3.22-.109.228-.464.484-.708.484-5.798.02-11.595-.017-17.395.024-2.092.02-3.664-.96-5.108-2.298-.502-.464-.989-.942-1.505-1.434-2.19 3.021-5.499 3.662-8.858 4.015-2.1.218-4.268.3-6.352.033-4.055-.524-6.502-3.365-6.75-7.461-.064-1.058-.018-2.127.024-3.185.024-.526.157-1.045.26-1.68 5.445 4.236 11.338 5.881 17.986 3.728-.237-1.331-.53-2.56-.674-3.803-.565-4.875 1.046-9.06 4.142-12.75 3.562-4.244 8.106-7.125 13.12-9.323.508-.222.732-.447.7-1.038-.146-2.741.545-5.345 1.648-7.801 1.199-2.67 2.634-5.23 3.945-7.851.175-.345.311-.741.339-1.123.13-1.974 1.048-3.575 2.344-4.982.64-.69 1.387-1.287 2.177-2.016.772 1.568.765 3.122 1.004 4.65 1.35-.969 2.671-1.914 4.087-2.928 1.014 1.35.345 2.727.317 4.12 1.477.624 2.484 1.769 3.171 3.243.088.192.382.31.604.413 2.068.946 4.142 1.88 6.214 2.82.78.355.944.74.625 1.533-.083.207-.177.46-.346.579-.897.619-1.282 1.673-2.015 2.384a6.48 6.48 0 0 1-2.558 1.508c-1.896.57-3.856.413-5.789.028-.185-.038-.353-.164-.506-.24.23 1.247.538 2.54.703 3.852a48.53 48.53 0 0 1-.384 14.583c-.809 4.575-.965 9.162.336 13.693.517 1.8 1.464 3.3 2.946 4.492.858.696 1.608 1.53 2.37 2.332.213.225.356.566.423.877.11.525-.074.891-.709.87-1.669-.051-3.342-.051-5.008-.16-.35-.02-.794-.362-.99-.676-1.059-1.724-2.16-3.431-3.041-5.24-1.14-2.339-2.087-4.772-3.115-7.161l-.316-.732"/></g></svg>