<svg xmlns="http://www.w3.org/2000/svg" xmlns:xlink="http://www.w3.org/1999/xlink" width="80" height="80" viewBox="0 0 80 80"><defs><path id="a" d="M0 34.604V0h59.72v69.21H0z"/></defs><g fill="none" fill-rule="evenodd"><path d="M0 0h80v80H0z"/><g transform="translate(10 5)"><mask id="b" fill="#fff"><use xlink:href="#a"/></mask><path fill="#2A2DF9" d="M35.115 46.225c-.328.067-.71.235-.915.485-.708.857-1.348 1.771-2.013 2.664-1.008 1.359-2.088 1.655-3.877 1.332a.83.83 0 0 1-.46-.305c-.614-.838-1.239-1.672-1.794-2.55-.418-.658-.722-1.385-1.106-2.066-.152-.268-.384-.49-.579-.734l-.119.083c.398 1.713 1.168 3.287 2.015 4.982-1.938-.795-3.49-1.872-4.894-3.158-1.067-.973-2.066-2.024-3.082-3.053-.278-.279-.57-.548-.932-.238-.416.357-.017.601.215.841 1.05 1.094 2.124 2.165 3.145 3.282 2.953 3.23 4.49 7.017 4.459 11.424-.015 2.429-.299 4.826-.707 7.212-.17.986-.235 2.017-1.017 2.783H33.4c-.214-.227-.469-.425-.63-.686-.216-.34-.455-.715-.515-1.1-.274-1.735-.57-3.475-.699-5.222-.111-1.505-.165-3.045.036-4.533.241-1.795.742-3.56 1.2-5.322.53-2.05 1.54-3.83 3.225-5.175.265-.21.517-.432.853-.714-.239-.11-.368-.215-.507-.224-.414-.028-.846-.085-1.248-.008m23.606-19.798c-.398-.867-1.093-1.594-1.639-2.393-.216-.317-.487-.634-.586-.992-.666-2.392-2.034-4.333-3.81-6.009-1.872-1.765-4.022-3.084-6.488-3.89-.158-2.866-1.07-5.414-3.17-7.446-2.107-2.037-4.701-2.82-7.57-2.87C34.94 1.33 33.706.694 32.346.216L31.725 0h-2.408c-.508.14-1.025.261-1.524.427-.912.306-1.738.73-2.067 1.732-1.558-.159-3.075-.059-4.57.349-1.364.37-2.495 1.163-3.472 2.133-.434.428-.654 1.087-.913 1.667-.128.288-.262.46-.561.592-2.231.986-3.803 2.6-4.506 4.959-.163.549-.105 1.161-.152 1.78-2.246.116-4.113 1.062-5.514 2.87-1.416 1.825-1.732 3.852-.964 6.071-1.155.22-2.169.637-2.988 1.448C.824 25.278.3 26.851.102 28.568c-.02.18-.067.362-.102.54v1.047c.14.779.239 1.57.43 2.336.276 1.105.735 2.133 1.493 3.007.861.996 1.909 1.554 3.296 1.37.054.477.077.948.167 1.407.458 2.354 2.003 3.745 4.15 4.554 1.705.645 3.48.805 5.292.665 1.85-.143 3.638-.528 5.344-1.267a.545.545 0 0 1 .46.063c2.897 2.308 6.266 2.983 9.857 2.832 1.035-.043 2.063-.275 3.095-.393.237-.025.516-.005.728.098 2.058 1.008 4.224 1.703 6.513 1.627 3.481-.118 6.763-1.015 9.625-3.113a6.604 6.604 0 0 0 2.09-2.501c.064-.14.252-.292.398-.309 3.074-.356 5.13-1.924 6.044-4.94.94-3.094 1.117-6.166-.261-9.164" mask="url(#b)"/></g></g></svg>