<svg xmlns="http://www.w3.org/2000/svg" width="80" height="80" viewBox="0 0 80 80"><g fill="none" fill-rule="evenodd"><path d="M0 0h80v80H0z"/><path fill="#2A2DF9" fill-rule="nonzero" d="M58.69 38.506c-2.04-8.281-4.08-16.56-6.102-24.843-.124-.508-.323-.661-.84-.66-7.595.017-15.186.017-22.78.004-.482 0-.689.13-.807.619-.764 3.198-1.564 6.39-2.353 9.583-3.435 13.935-6.872 27.867-10.306 41.802-.173.7-.327 1.408-.496 2.15.234.021.376.044.519.044 6.21.002 12.418-.003 18.625.013.483.002.61-.176.637-.612.093-1.695.208-3.39.32-5.084.053-.749.117-1.494.177-2.252h10.162c.022.234.05.44.063.643.145 2.157.306 4.31.42 6.466.033.61.186.851.871.848 6.063-.032 12.124-.02 18.186-.02h.744c-.054-.27-.082-.453-.125-.63l-6.915-28.07zM38.263 18.28c.103-1.403.225-2.802.316-4.204.021-.326.135-.443.455-.438.902.01 1.804-.01 2.705.017.14.006.384.205.394.332.197 2.377.37 4.762.55 7.205H38.07c.064-1 .122-1.957.192-2.912zm-.765 10.569H40.3c.818 0 1.637-.022 2.452.017.175.01.48.219.492.356.197 2.34.355 4.679.522 7.023.002.035-.031.074-.067.153h-6.747l.546-7.55zm7.357 22.758h-9.022c.071-1.029.137-1.99.208-2.948.099-1.357.217-2.716.288-4.078.027-.428.161-.568.598-.564 2.306.02 4.612.01 6.92.007.295-.002.521.005.547.405.15 2.258.323 4.515.484 6.773.01.121-.014.245-.023.405zm-20.179-38.59c-1.263 0-2.414.033-3.56-.015-.543-.021-.758.18-.925.675-1.52 4.527-3.065 9.044-4.604 13.563C11.941 37.944 8.3 48.649 4.653 59.354 3.775 61.928 2.902 64.502 2 67.146c.165.03.245.056.325.056 2.852.003 5.704-.001 8.556.011.397.002.475-.209.553-.525.642-2.626 1.297-5.247 1.944-7.869 3.535-14.317 7.072-28.63 10.606-42.946.23-.923.448-1.85.692-2.855zm53.85 53.51c-.746-2.201-1.493-4.4-2.244-6.6L64.106 24.186c-1.201-3.529-2.394-7.058-3.61-10.583-.075-.222-.293-.552-.456-.557-1.295-.048-2.59-.027-3.94-.027.039.24.054.4.092.555.738 3.01 1.478 6.02 2.225 9.03 3.623 14.66 7.249 29.32 10.859 43.985.121.49.308.634.793.629 2.666-.021 5.328-.01 7.989-.01h.674c-.087-.286-.138-.485-.205-.681z"/></g></svg>