<svg xmlns="http://www.w3.org/2000/svg" xmlns:xlink="http://www.w3.org/1999/xlink" width="80" height="80" viewBox="0 0 80 80"><defs><path id="a" d="M0 0h76.503v44.138H0z"/></defs><g fill="none" fill-rule="evenodd"><path d="M0 0h80v80H0z"/><g transform="translate(2 20)"><mask id="b" fill="#fff"><use xlink:href="#a"/></mask><path fill="#2130F4" d="M59.122 40.194c-2.534-.01-4.469-1.945-4.448-4.433.012-2.516 1.966-4.503 4.407-4.498 2.564.006 4.53 1.987 4.517 4.545-.008 2.513-1.934 4.392-4.476 4.386m.113-12.853c-4.582-.005-8.503 3.871-8.472 8.385.03 4.614 3.911 8.473 8.45 8.41 4.582-.057 8.413-3.993 8.339-8.555-.07-4.43-3.901-8.235-8.317-8.24M16.71 40.194c-2.533.006-4.477-1.88-4.498-4.35-.02-2.583 1.912-4.568 4.446-4.58 2.553-.011 4.49 1.95 4.478 4.53 0 2.506-1.905 4.39-4.426 4.4m-.124-12.853c-4.54.048-8.318 3.882-8.276 8.401.03 4.617 3.931 8.478 8.473 8.395 4.592-.088 8.39-4.01 8.307-8.592-.062-4.477-3.984-8.251-8.504-8.204m58.586-1.792c-.556-.755-1.04-1.652-1.288-2.55-.68-2.396-1.841-4.022-4.416-4.89-3.88-1.303-7.577-3.099-11.324-4.742-.483-.205-.978-.648-1.194-1.106C53.821 5.73 48.517 2.112 41.53.95c-7.638-1.26-15.309-1.404-22.896.397C11.12 3.129 6.301 7.936 3.953 15.184c-.885 2.697-1.276 5.544-1.923 8.307-.187.743-.362 1.538-.771 2.163-2.802 4.251-.754 9.037 4.445 10.03 1.154-7.159 5.045-11.21 12.663-10.555 4.786.406 7.782 3.936 9.233 10.578h20.6c.916-6.725 4.529-10.851 11.55-10.672 5.784.154 8.832 3.626 10.264 10.528 2.15.323 4.445-.891 5.66-2.988 1.287-2.228 1.042-4.965-.503-7.026" mask="url(#b)"/></g></g></svg>