<svg xmlns="http://www.w3.org/2000/svg" width="80" height="80" viewBox="0 0 80 80"><g fill="none" fill-rule="evenodd"><path d="M0 0h80v80H0z"/><path fill="#2130F4" d="M44.035 56.485h14.068V42.417H44.035v14.068zm-6.42 9.013v-23.08h-14.07v23.07l-7.687-.004.023-28.003 24.67-17.51 24.603 17.326.017 28.22-27.557-.019zm37.401-31.794l-9.24-6.665V15.674c0-.939-.757-1.697-1.697-1.697l-8.426.018a1.69 1.69 0 0 0-1.696 1.696v3.021L42.642 10.67c-.647-.485-1.393-.67-2.134-.67-.737 0-1.493.185-2.13.67L6 33.704l.044 8.713 5.332.033-.02 25.804c0 .957.79 1.746 1.747 1.746h54.83a1.74 1.74 0 0 0 1.746-1.746l-.014-25.837h5.351v-8.713z"/></g></svg>