<svg xmlns="http://www.w3.org/2000/svg" xmlns:xlink="http://www.w3.org/1999/xlink" width="80" height="80" viewBox="0 0 80 80"><defs><path id="a" d="M69.387 59.453V0H0v59.453h69.387z"/></defs><g fill="none" fill-rule="evenodd"><path d="M0 0h80v80H0z"/><g transform="translate(5 10)"><mask id="b" fill="#fff"><use xlink:href="#a"/></mask><path fill="#2F2BFF" d="M41.162 0c3.46 1.02 6.938 1.982 10.372 3.073 5.512 1.754 11.001 3.59 16.494 5.4.965.318 1.46.891 1.343 1.885-.142 1.184-.44 2.359-.77 3.505-.883 3.048-1.835 6.081-2.723 9.125-.302 1.045-.939 1.633-1.997 1.738-2.12.208-4.24.405-6.365.584-1.296.109-1.344.153-1.324 1.474.088 6.288.169 12.58.256 18.868.048 3.284.09 6.572.156 9.856.043 2.15-.398 2.911-2.4 3.833h2.15l-.003.112H13.185l-.003-.085h2.317c-1.966-.792-2.57-1.671-2.549-3.505.057-4.647.107-9.296.176-13.94.078-5.184.175-10.369.261-15.551.005-.283.002-.564.002-.94-.892-.085-1.75-.177-2.605-.248-1.407-.12-2.813-.273-4.223-.322-1.603-.051-2.568-.792-3.007-2.335-.636-2.24-1.333-4.462-2.001-6.694-.456-1.52-.912-3.038-1.361-4.56-.456-1.54-.14-2.247 1.392-2.792a168.17 168.17 0 0 1 6.414-2.155c6.673-2.082 13.355-4.133 20.031-6.2.068-.02.123-.081.183-.126h2.775c.165.045.33.123.494.123 2.19.01 4.378.01 6.567 0 .164 0 .328-.078.494-.123h2.62zm24.695 11.324c-.27-.106-.499-.209-.74-.283-6.749-2.167-13.498-4.333-20.251-6.487-1.591-.508-1.61-.499-2.49.897-3.586 5.692-11.45 5.6-14.83.892-.501-.7-.935-1.45-1.46-2.273-7.459 2.382-14.911 4.765-22.389 7.159l2.783 9.336c.044.146.114.29.138.44.068.454.366.54.77.567 2.046.15 4.093.33 6.139.481 2.089.153 3.219 1.334 3.195 3.448-.058 5.288-.132 10.575-.208 15.864-.042 3-.11 6.004-.145 9.008-.022 1.836-.005 3.677-.005 5.534h36.69c0-4.339.028-8.627-.007-12.911-.049-5.878-.17-11.757-.187-17.635-.003-.649.345-1.4.76-1.918.692-.86 1.715-1.301 2.828-1.403 1.892-.178 3.788-.301 5.678-.492.285-.028.72-.257.792-.482 1.005-3.223 1.959-6.459 2.94-9.742z" mask="url(#b)"/></g></g></svg>