<svg xmlns="http://www.w3.org/2000/svg" xmlns:xlink="http://www.w3.org/1999/xlink" width="80" height="80" viewBox="0 0 80 80"><defs><path id="a" d="M80 18.734V0H0v37.468h80z"/></defs><g fill="none" fill-rule="evenodd"><path d="M0 0h80v80H0z"/><g transform="translate(0 22)"><mask id="b" fill="#fff"><use xlink:href="#a"/></mask><path fill="#0C34F0" d="M0 20.026v-3.09s0-1.445 1.464-1.445h29.672l-.556-3.582h49.417l-2.762 17.786H33.339l-1.29-8.314c-.121.026-.2.094-.352.094H1.464S0 21.475 0 20.025zm80-9.511H30.575c.68-3.607 7.105-6.43 14.954-6.455C46.434 1.69 48.67 0 51.313 0h7.94c2.645 0 4.883 1.691 5.791 4.06 7.842.032 14.268 2.853 14.956 6.455zM33.681 31.9H76.88l-.863 5.567H34.542l-.86-5.567z" mask="url(#b)"/></g></g></svg>